<svg xmlns="http://www.w3.org/2000/svg" width="26" height="26" viewBox="0 0 26 26">
    <g fill="none" fill-rule="evenodd">
        <path fill="#FFF" d="M-1103-224H337v3145h-1440z"/>
        <path fill="#FFCD00" d="M-1103.47 252.001h1440v-476h-1440z"/>
        <path fill="#D4D4D4" d="M25.952 36.742l-44.558-46.65-62.386 82.367-11.35-53.586-36.262 22.807L-24.773-81.436 26.003 36.047z"/>
        <path fill="#A2A2A2" d="M33.096 52.449l-7.093-16.402 2.383-32.059 44.642 22.906 87.082 96.44 36.97 76.783-149.842 5.602-35.034-115.85z"/>
        <path fill="#FFF" d="M26.003 36.047L-24.771-81.436l97.797 108.33-44.64-22.907z"/>
        <path fill="#6C6C6C" d="M-128.603 41.68l36.261-22.808 11.348 53.586 62.39-82.366 44.556 46.65.05-.695 7.093 16.402 27.856 3.243 65.205 162.66-403.344-.514z"/>
        <path fill="#000" d="M-17-12h61v50h-61z"/>
        <path stroke="#FFCD00" stroke-linecap="round" stroke-linejoin="round" stroke-width="1.3" d="M1.107 7.61c-.86 5.902 3.62 10.449 8.407 10.466 3.91.013 7.185-3.676 9.895-.968 0 0 4.037 4.032 4.9 4.896 1.841 1.837-.346 4.342-2.491 2.128 0 0-4.084-3.976-4.91-4.888-1.761-1.944.578-5.083.849-8.138C18.323 4.677 13.816.209 7.63 1.117c-3.673.54-6.055 3.281-6.523 6.493z"/>
    </g>
</svg>
